#!OML:ASF C:\ViconDB\ViconDB\414\Spring2016\041811\Spring2016.ASF
:FULLY-SPECIFIED
:DEGREES
139
root 6.98776 17.78 -5.73682 -170.597 -8.10186 181.088
lowerback 16.5526 1.09795 -2.15602
upperback 3.55134 0.65777 0.476486
thorax -5.51771 0.163431 1.60853
lowerneck -15.1799 -1.59107 -8.40736
upperneck 15.2782 -2.88541 12.5627
head 7.4932 -0.856988 5.24326
rclavicle 1.18774e-014 1.44119e-014
rhumerus -49.381 -4.81759 -84.3882
rradius 53.1265
rwrist 17.1852
rhand -34.1973 -17.355
rfingers 7.12502
rthumb -7.37003 -47.2066
lclavicle 1.18774e-014 1.44119e-014
lhumerus -41.8757 -7.32208 78.5863
lradius 32.9031
lwrist -19.0799
lhand -33.8019 15.8344
lfingers 7.12502
lthumb -6.98832 45.6991
rfemur -24.9873 -13.0846 24.3967
rtibia 37.4602
rfoot -7.2788 -7.63936
rtoes -7.77682
lfemur -31.2435 2.0345 -14.1371
ltibia 42.0103
lfoot -21.4988 -3.53904
ltoes -10.7081
140
root 6.99328 17.736 -5.70082 -170.025 -8.21169 181.118
lowerback 17.2119 1.05783 -1.90946
upperback 3.56254 0.60916 0.396524
thorax -5.85576 0.130906 1.39261
lowerneck -15.2924 -1.65371 -8.28883
upperneck 14.8006 -2.92146 12.5383
head 7.3621 -0.863248 5.19962
rclavicle -1.54058e-015 2.90226e-014
rhumerus -49.7379 -4.79347 -84.5527
rradius 53.6345
rwrist 17.047
rhand -34.5664 -16.6984
rfingers 7.12502
rthumb -7.7263 -46.5373
lclavicle -1.54058e-015 2.90226e-014
lhumerus -42.0824 -7.39616 78.3815
lradius 33.1501
lwrist -18.9697
lhand -34.0596 15.5035
lfingers 7.12502
lthumb -7.23712 45.3598
rfemur -26.4751 -13.2823 24.6423
rtibia 38.682
rfoot -7.05634 -7.97454
rtoes -7.55949
lfemur -32.6742 2.27504 -14.1547
ltibia 43.0532
lfoot -21.6567 -3.86278
ltoes -10.704
141
root 7.00005 17.6912 -5.67075 -169.436 -8.24293 181.075
lowerback 17.8436 1.04434 -1.89189
upperback 3.57305 0.561497 0.381514
thorax -6.18278 0.102372 1.37637
lowerneck -15.4391 -1.67463 -8.22008
upperneck 14.3247 -2.86738 12.4343
head 7.2267 -0.833663 5.14819
rclavicle 2.84262e-014 6.26172e-015
rhumerus -50.1016 -4.59083 -84.7586
rradius 54.245
rwrist 16.4482
rhand -35.0266 -16.078
rfingers 7.12502
rthumb -8.17042 -45.9
lclavicle 2.84262e-014 6.26172e-015
lhumerus -42.3198 -7.48799 78.4355
lradius 33.4874
lwrist -18.2301
lhand -34.1559 15.6201
lfingers 7.12502
lthumb -7.33005 45.4731
rfemur -27.9757 -13.3848 24.8069
rtibia 39.908
rfoot -6.83019 -8.28181
rtoes -7.32265
lfemur -34.071 2.62033 -14.2664
ltibia 44.0838
lfoot -21.8241 -4.23124
ltoes -10.6046
142
root 7.00414 17.6463 -5.64463 -168.865 -8.23858 180.959
lowerback 18.4275 1.05232 -1.95523
upperback 3.65298 0.519453 0.363962
thorax -6.40998 0.0730491 1.40336
lowerneck -15.6473 -1.65322 -7.80588
upperneck 13.9089 -2.71022 11.7123
head 7.09631 -0.779175 4.84243
rclavicle 6.90777e-015 -1.2921e-014
rhumerus -50.32 -4.47935 -84.8789
rradius 54.7511
rwrist 16.2332
rhand -34.8794 -16.6324
rfingers 7.12502
rthumb -8.02841 -46.46
lclavicle 6.90777e-015 -1.2921e-014
lhumerus -42.3579 -7.24561 78.3782
lradius 33.7725
lwrist -17.8332
lhand -34.1796 15.6772
lfingers 7.12502
lthumb -7.35291 45.5295
rfemur -29.4424 -13.555 24.8765
rtibia 41.1284
rfoot -6.66535 -8.66447
rtoes -7.10723
lfemur -35.3949 2.84925 -14.4582
ltibia 45.0879
lfoot -22.0295 -4.47936
ltoes -10.5773
143
root 7.00416 17.602 -5.62135 -168.219 -8.1806 180.92
lowerback 18.9314 1.08558 -1.90604
upperback 3.67591 0.543842 0.356774
thorax -6.65607 0.078716 1.36174
lowerneck -15.6982 -1.72301 -7.92045
upperneck 13.3313 -2.71132 11.7474
head 6.92264 -0.780023 4.86208
rclavicle -3.89121e-014 1.17283e-014
rhumerus -50.5739 -4.4687 -84.9385
rradius 55.1917
rwrist 16.1183
rhand -35.1242 -16.5566
rfingers 7.12502
rthumb -8.26459 -46.3749
lclavicle -3.89121e-014 1.17283e-014
lhumerus -42.4305 -7.16954 78.3768
lradius 34.0195
lwrist -17.5107
lhand -34.0985 15.6234
lfingers 7.12502
lthumb -7.2746 45.4783
rfemur -30.9869 -13.7014 25.0422
rtibia 42.3236
rfoot -6.57779 -9.05427
rtoes -6.94989
lfemur -36.7863 3.10987 -14.5963
ltibia 46.0846
lfoot -22.259 -4.65849
ltoes -10.5983
144
root 7.00703 17.5559 -5.60015 -167.629 -8.07226 180.859
lowerback 19.4599 1.14009 -1.93324
upperback 3.76432 0.566807 0.305691
thorax -6.84431 0.0792031 1.31683
lowerneck -16.0245 -1.77556 -7.87428
upperneck 12.9485 -2.72407 11.7318
head 6.85818 -0.774418 4.842
rclavicle -1.00883e-014 7.15625e-015
rhumerus -50.6468 -4.50196 -85.0691
rradius 55.5598
rwrist 15.7485
rhand -35.3326 -16.2891
rfingers 7.12502
rthumb -8.46581 -46.0994
lclavicle -1.00883e-014 7.15625e-015
lhumerus -42.3541 -6.93888 78.2658
lradius 34.1313
lwrist -17.2284
lhand -34.2207 15.4449
lfingers 7.12502
lthumb -7.39257 45.2957
rfemur -32.4374 -13.6985 25.1637
rtibia 43.4931
rfoot -6.4088 -9.37314
rtoes -6.745
lfemur -38.1065 3.56183 -14.7844
ltibia 47.0645
lfoot -22.4634 -4.96915
ltoes -10.5985
145
root 7.01573 17.5055 -5.57691 -167.059 -8.16283 180.882
lowerback 20.0601 1.12322 -1.86974
upperback 3.82838 0.519276 0.316612
thorax -7.09315 0.0457404 1.30455
lowerneck -16.0375 -1.8481 -8.04815
upperneck 12.2003 -2.74878 11.9771
head 6.63159 -0.780077 4.93624
rclavicle 2.13694e-015 7.95139e-016
rhumerus -50.6705 -4.75994 -85.0678
rradius 55.8871
rwrist 15.6666
rhand -35.4233 -16.3522
rfingers 7.12502
rthumb -8.55334 -46.159
lclavicle 2.13694e-015 7.95139e-016
lhumerus -42.2478 -6.58479 78.1893
lradius 34.4375
lwrist -16.6373
lhand -34.2742 15.3149
lfingers 7.12502
lthumb -7.44423 45.164
rfemur -33.8564 -13.7625 25.419
rtibia 44.6406
rfoot -6.14124 -9.63596
rtoes -6.5621
lfemur -39.4626 3.81971 -14.8112
ltibia 48.0511
lfoot -22.6157 -5.30971
ltoes -10.5949
146
root 7.01856 17.4575 -5.56105 -166.569 -8.08 180.821
lowerback 20.6145 1.17779 -1.82971
upperback 3.95213 0.54799 0.259365
thorax -7.25399 0.0439399 1.21302
lowerneck -16.2371 -1.91379 -8.19336
upperneck 11.6793 -2.78236 12.2161
head 6.51086 -0.783459 5.02829
rclavicle -1.84373e-014 -7.95139e-016
rhumerus -50.5694 -4.91986 -85.1697
rradius 56.0276
rwrist 15.6517
rhand -35.7751 -16.4813
rfingers 7.12502
rthumb -8.89278 -46.2739
lclavicle -1.84373e-014 -7.95139e-016
lhumerus -42.0128 -6.34366 78.0701
lradius 34.595
lwrist -16.4421
lhand -34.3326 15.4343
lfingers 7.12502
lthumb -7.50062 45.2813
rfemur -35.1454 -13.847 25.5151
rtibia 45.7857
rfoot -6.04366 -10.0465
rtoes -6.50081
lfemur -40.6196 4.11733 -14.9657
ltibia 48.9967
lfoot -22.8467 -5.55084
ltoes -10.7189
147
root 7.02364 17.406 -5.54483 -166.064 -8.04329 180.759
lowerback 21.2417 1.20555 -1.90471
upperback 3.99907 0.526089 0.244776
thorax -7.53573 0.0257923 1.24614
lowerneck -16.3775 -1.9199 -8.2601
upperneck 11.2842 -2.74135 12.3007
head 6.40794 -0.759657 5.06538
rclavicle 2.10712e-014 9.74045e-015
rhumerus -50.4968 -5.15145 -85.2286
rradius 56.1352
rwrist 15.4652
rhand -35.9558 -16.4552
rfingers 7.12502
rthumb -9.06716 -46.2403
lclavicle 2.10712e-014 9.74045e-015
lhumerus -41.8316 -5.7447 77.8833
lradius 34.6626
lwrist -16.5088
lhand -34.2823 15.4302
lfingers 7.12502
lthumb -7.45208 45.279
rfemur -36.4557 -13.9729 25.6404
rtibia 46.9153
rfoot -5.88974 -10.424
rtoes -6.25718
lfemur -41.8162 4.48028 -15.1341
ltibia 49.9418
lfoot -23.0413 -5.88324
ltoes -10.8371
